<svg width="300" height="300" viewBox="0 0 200 200" xmlns="http://www.w3.org/2000/svg">
  <path fill="#A0E7E5" d="M43.3,-70.2C55.2,-63.1,64.7,-55.1,70.8,-44.7C76.8,-34.3,79.5,-21.4,78.8,-9.2C78.2,3.1,74.2,14.5,70.2,26.1C66.1,37.7,61.9,49.4,53.5,58.4C45.1,67.3,32.5,73.5,19.5,75.2C6.6,77,-7.8,74.4,-19.9,68.3C-32.1,62.2,-42.1,52.6,-53.5,43.5C-65,34.3,-77.9,25.7,-83.3,13.4C-88.6,1.2,-86.5,-14.8,-79.2,-28.5C-71.9,-42.3,-59.4,-53.9,-45.6,-60.7C-31.7,-67.6,-15.8,-69.6,-1.2,-67.4C13.3,-65.1,26.7,-58.7,43.3,-70.2Z" transform="translate(100 100)"></path>
</svg>
